<?xml version="1.0" encoding="UTF-8"?><svg id="b" xmlns="http://www.w3.org/2000/svg" viewBox="0 0 340.16 340.16"><defs><style>.f,.g{fill:#fff;}.g{isolation:isolate;opacity:.2;}</style></defs><g id="c"><g><g transform="matrix(1, 0, 0, 1, 1736, 4039)"><circle id="d" class="g" cx="170.08" cy="170.08" r="170.08"/></g><path id="e" class="f" d="M195.21,174.46c11.38-9.13,17.07-23.62,14.94-38.06-2.99-17.88-17.35-31.68-35.33-33.97-21.7-3.21-41.9,11.79-45.1,33.49-.32,2.18-.46,4.38-.42,6.58,.07,12.33,5.53,24.01,14.95,31.96-23.72,8.74-40.17,30.5-42.1,55.71-.48,3.62,2.06,6.94,5.68,7.42,.37,.05,.75,.07,1.13,.05,3.43-.16,6.28-2.72,6.8-6.11,1.77-28.27,26.03-49.81,54.31-48.21,28.23-1.4,52.39,20.05,54.36,48.24,.31,3.51,3.28,6.18,6.8,6.11,3.65,.14,6.72-2.7,6.86-6.35,.01-.38,0-.75-.05-1.13-2.25-25.32-18.94-47.05-42.83-55.74Zm-25.14-4.75c-15.03,0-27.21-12.18-27.21-27.21s12.18-27.21,27.21-27.21,27.21,12.18,27.21,27.21h0c-.02,15.02-12.19,27.19-27.21,27.21Z"/></g></g></svg>