<svg xmlns="http://www.w3.org/2000/svg" xmlns:xlink="http://www.w3.org/1999/xlink" width="70" height="70" viewBox="0 0 70 70">
  <defs>
    <style>
      .cls-1, .cls-2 {
        fill: #fff;
      }

      .cls-1 {
        opacity: 0.2;
      }

      .cls-3 {
        filter: url(#Ellipse_150);
      }
    </style>
    <filter id="Ellipse_150" x="0" y="0" width="70" height="70" filterUnits="userSpaceOnUse">
      <feOffset input="SourceAlpha"/>
      <feGaussianBlur stdDeviation="5" result="blur"/>
      <feFlood flood-opacity="0.251"/>
      <feComposite operator="in" in2="blur"/>
      <feComposite in="SourceGraphic"/>
    </filter>
  </defs>
  <g id="Group_1746" data-name="Group 1746" transform="translate(-1736 -4039)">
    <g class="cls-3" transform="matrix(1, 0, 0, 1, 1736, 4039)">
      <circle id="Ellipse_150-2" data-name="Ellipse 150" class="cls-1" cx="20" cy="20" r="20" transform="translate(15 15)"/>
    </g>
    <path id="profile_1_" class="cls-2" d="M10.943,8.558A4.834,4.834,0,0,0,12.7,4.083,4.831,4.831,0,0,0,8.546.088,4.671,4.671,0,0,0,3.193,4.8,4.954,4.954,0,0,0,4.951,8.558,7.6,7.6,0,0,0,0,15.109a.777.777,0,0,0,.8.879.85.85,0,0,0,.8-.719A6.057,6.057,0,0,1,7.987,9.6a6.105,6.105,0,0,1,6.392,5.673.788.788,0,0,0,.8.719.777.777,0,0,0,.8-.879A7.7,7.7,0,0,0,10.943,8.558ZM7.987,8a3.2,3.2,0,1,1,3.2-3.2A3.205,3.205,0,0,1,7.987,8Z" transform="translate(1763.012 4065.957)"/>
  </g>
</svg>
