<svg xmlns="http://www.w3.org/2000/svg" width="16" height="15.946" viewBox="0 0 16 15.946">
  <defs>
    <style>
      .cls-1 {
        fill: #fff;
      }
    </style>
  </defs>
  <path id="profile_1_" class="cls-1" d="M10.943,8.558A4.834,4.834,0,0,0,12.7,4.083,4.831,4.831,0,0,0,8.546.088,4.671,4.671,0,0,0,3.193,4.8,4.954,4.954,0,0,0,4.951,8.558,7.6,7.6,0,0,0,0,15.109a.777.777,0,0,0,.8.879.85.85,0,0,0,.8-.719A6.057,6.057,0,0,1,7.987,9.6a6.105,6.105,0,0,1,6.392,5.673.788.788,0,0,0,.8.719.777.777,0,0,0,.8-.879A7.7,7.7,0,0,0,10.943,8.558ZM7.987,8a3.2,3.2,0,1,1,3.2-3.2A3.205,3.205,0,0,1,7.987,8Z" transform="translate(0.013 -0.042)"/>
</svg>
